<svg xmlns="http://www.w3.org/2000/svg" width="120" height="120" viewBox="0 0 120 120">
    <g>
        <g>
            <g transform="translate(7.875 18.131) translate(33.9 9.598)">
                <circle cx="18.225" cy="18.225" r="18.225" fill="#FFF"/>
            </g>
            <g>
                <path d="M102.9 65.32H9.751A5.557 5.557 0 0 1 4.2 59.77V15.22a5.557 5.557 0 0 1 5.55-5.55h93.15a5.555 5.555 0 0 1 5.548 5.55v44.55a5.555 5.555 0 0 1-5.548 5.55zM9.751 12.67A2.554 2.554 0 0 0 7.2 15.22v44.55a2.554 2.554 0 0 0 2.552 2.55H102.9a2.554 2.554 0 0 0 2.55-2.55V15.22a2.554 2.554 0 0 0-2.55-2.55z" transform="translate(7.875 18.131) translate(.002) translate(-4.201 -9.67)"/>
            </g>
            <g/>
            <g>
                <g>
                    <path d="M38.516 41.4a1.492 1.492 0 0 1-1.059-.439l-9.5-9.5a1.5 1.5 0 0 1 1.059-2.561h4.969a3.47 3.47 0 1 0 0-6.939h-4.972a1.5 1.5 0 1 1 0-3h13.824a1.5 1.5 0 1 1 0 3h-3.4a6.466 6.466 0 0 1-5.46 9.938h-1.341l6.941 6.943a1.5 1.5 0 0 1-1.061 2.558z" transform="translate(7.875 18.131) translate(43.712 17.413) translate(-27.513 -18.957)"/>
                </g>
                <g>
                    <path d="M42.837 24.607H29.013a1.5 1.5 0 1 1 0-3h13.824a1.5 1.5 0 0 1 0 3z" transform="translate(7.875 18.131) translate(43.712 17.413) translate(0 4.969) translate(-27.513 -21.607)"/>
                </g>
            </g>
            <g>
                <path d="M41.205 53.439a19.725 19.725 0 1 1 19.723-19.725 19.747 19.747 0 0 1-19.723 19.725zm0-36.45A16.725 16.725 0 1 0 57.93 33.714a16.744 16.744 0 0 0-16.725-16.725z" transform="translate(7.875 18.131) translate(32.4 8.098) translate(-21.48 -13.989)"/>
            </g>
            <g>
                <path d="M102.9 52.451H9.75A5.555 5.555 0 0 1 4.2 46.9V36.619a1.5 1.5 0 1 1 3 0V46.9a2.556 2.556 0 0 0 2.55 2.553h93.15a2.556 2.556 0 0 0 2.55-2.553V36.619a1.5 1.5 0 1 1 3 0V46.9a5.555 5.555 0 0 1-5.55 5.551z" transform="translate(7.875 18.131) translate(0 47.717) translate(-4.2 -35.119)"/>
            </g>
            <g>
                <path d="M102.9 63.061H9.75a5.555 5.555 0 0 1-5.55-5.548V35.238a1.5 1.5 0 1 1 3 0v22.275a2.555 2.555 0 0 0 2.552 2.55H102.9a2.555 2.555 0 0 0 2.552-2.55V35.238a1.5 1.5 0 1 1 3 0v22.275a5.555 5.555 0 0 1-5.552 5.548z" transform="translate(7.875 18.131) translate(0 45.127) translate(-4.2 -33.738)"/>
            </g>
            <g>
                <path d="M102.9 68.015H9.75a5.557 5.557 0 0 1-5.55-5.55V40.19a1.5 1.5 0 1 1 3 0v22.275a2.554 2.554 0 0 0 2.552 2.55H102.9a2.554 2.554 0 0 0 2.552-2.55V40.19a1.5 1.5 0 1 1 3 0v22.275a5.557 5.557 0 0 1-5.552 5.55z" transform="translate(7.875 18.131) translate(0 54.412) translate(-4.2 -38.69)"/>
            </g>
            <g>
                <path d="M87.589 53.438H17.5a1.5 1.5 0 0 1-1.468-1.189 8.192 8.192 0 0 0-6.321-6.324 1.5 1.5 0 0 1-1.191-1.466v-21.49A1.5 1.5 0 0 1 9.711 21.5a8.192 8.192 0 0 0 6.321-6.323A1.5 1.5 0 0 1 17.5 13.99h70.089a1.5 1.5 0 0 1 1.468 1.191 8.2 8.2 0 0 0 6.321 6.319 1.5 1.5 0 0 1 1.191 1.466v21.493a1.5 1.5 0 0 1-1.191 1.466 8.2 8.2 0 0 0-6.321 6.324 1.5 1.5 0 0 1-1.468 1.189zm-68.942-3h67.794a11.2 11.2 0 0 1 7.129-7.129v-19.2a11.2 11.2 0 0 1-7.129-7.129H18.647a11.2 11.2 0 0 1-7.127 7.129v19.202a11.2 11.2 0 0 1 7.127 7.129z" transform="translate(7.875 18.131) translate(8.1 8.096) translate(-8.52 -13.988)"/>
            </g>
            <g>
                <path d="M55.834 26.709h-9.463a1.5 1.5 0 0 1 0-3h9.463a1.5 1.5 0 1 1 0 3z" transform="translate(7.875 18.131) translate(76.258 26.323) translate(-44.871 -23.709)"/>
            </g>
            <g>
                <path d="M23.447 26.709h-9.465a1.5 1.5 0 0 1 0-3h9.465a1.5 1.5 0 0 1 0 3z" transform="translate(7.875 18.131) translate(15.529 26.323) translate(-12.482 -23.709)"/>
            </g>
        </g>
    </g>
    <path fill="none" d="M0 0H120V120H0z"/>
</svg>
