<svg xmlns="http://www.w3.org/2000/svg" id="Group_13355" width="120" height="120" viewBox="0 0 120 120">
    <defs>
        <style>
            .cls-1{fill:#FFF}
        </style>
    </defs>
    <g id="Group_13274" transform="translate(14.25 7.875)">
        <g id="Group_13263" transform="translate(13.899 34.575)">
            <g id="Group_13261">
                <path id="Path_28581" d="M32.2 57.742a1.5 1.5 0 0 1-1.061-.439l-15.69-15.69a1.5 1.5 0 0 1 1.061-2.561h8.205a6.706 6.706 0 0 0 0-13.412h-8.202a1.5 1.5 0 0 1 0-3h22.825a1.5 1.5 0 0 1 0 3h-7.609a9.7 9.7 0 0 1-7.011 16.412h-4.584l13.131 13.129a1.5 1.5 0 0 1-1.065 2.561z" transform="translate(-15.013 -22.64)"/>
            </g>
            <g id="Group_13262" transform="translate(.001 8.207)">
                <path id="Path_28582" d="M39.337 30.015H16.513a1.5 1.5 0 1 1 0-3h22.824a1.5 1.5 0 1 1 0 3z" transform="translate(-15.013 -27.017)"/>
            </g>
        </g>
        <g id="Group_13266" transform="translate(60.776 50.859)">
            <g id="Group_13265">
                <g id="Group_13264">
                    <path id="Path_28583" d="M68.478 44.12L56.445 32.084a2.555 2.555 0 0 0-3.636 0L40.773 44.12a2.558 2.558 0 0 0-.759 1.819v34.17a3.12 3.12 0 0 0 3.107 3.084h23.01a3.118 3.118 0 0 0 3.107-3.084v-34.17a2.558 2.558 0 0 0-.76-1.819zm-11.436.345a3.39 3.39 0 0 1-4.74 0 3.352 3.352 0 1 1 4.74 0z" class="cls-1" transform="translate(-40.014 -31.325)"/>
                </g>
            </g>
        </g>
        <g id="Group_13269" transform="translate(59.287 49.369)">
            <g id="Group_13268">
                <g id="Group_13267">
                    <path id="Path_28584" d="M66.837 85.4H43.814a4.622 4.622 0 0 1-4.594-4.59V46.633a4.066 4.066 0 0 1 1.187-2.884l12.03-12.032a4.1 4.1 0 0 1 5.768 0l12.033 12.03a4.1 4.1 0 0 1 1.187 2.9V80.8a4.622 4.622 0 0 1-4.588 4.6zm-24.619-4.6a1.616 1.616 0 0 0 1.6 1.6h23.013a1.611 1.611 0 0 0 1.594-1.6V46.633a1.08 1.08 0 0 0-.311-.767L56.086 33.839a1.09 1.09 0 0 0-1.532 0L42.529 45.868a1.067 1.067 0 0 0-.311.756zm0 0z" transform="translate(-39.22 -30.53)"/>
                </g>
            </g>
        </g>
        <g id="Group_13271">
            <g id="Group_13270" transform="translate(0 .002)">
                <path id="Path_28585" d="M52.819 108.449H16a8.412 8.412 0 0 1-8.4-8.4V12.6A8.412 8.412 0 0 1 16 4.2h36.819a8.412 8.412 0 0 1 8.4 8.4v87.441a8.412 8.412 0 0 1-8.4 8.408zM16 7.2a5.41 5.41 0 0 0-5.4 5.4v87.441a5.41 5.41 0 0 0 5.4 5.4h36.819a5.411 5.411 0 0 0 5.406-5.4V12.6a5.411 5.411 0 0 0-5.406-5.4z" transform="translate(-7.6 -4.201)"/>
            </g>
            <g id="Line_651" transform="translate(18.881 94.018)">
                <path id="Path_28586" d="M32.031 57.343H19.17a1.5 1.5 0 1 1 0-3h12.861a1.5 1.5 0 1 1 0 3z" transform="translate(-17.67 -54.343)"/>
            </g>
            <g id="Rectangle_12171" transform="translate(10.877)">
                <path id="Path_28587" d="M14.2 5h28.87v3.786a3.447 3.447 0 0 1-3.448 3.446H17.647A3.446 3.446 0 0 1 14.2 8.786V5z" class="cls-1" transform="translate(-12.701 -3.5)"/>
                <path id="Path_28588" d="M40.322 14.432H18.349A4.951 4.951 0 0 1 13.4 9.486V5.7a1.5 1.5 0 0 1 1.5-1.5h28.87a1.5 1.5 0 0 1 1.5 1.5v3.786a4.952 4.952 0 0 1-4.948 4.946zM16.4 7.2v2.286a1.953 1.953 0 0 0 1.95 1.948h21.972a1.951 1.951 0 0 0 1.948-1.948V7.2z" transform="translate(-13.401 -4.2)"/>
            </g>
        </g>
        <g id="Group_13272" transform="translate(70.59 56.815)">
            <path id="Path_28589" d="M50.1 44.155a4.85 4.85 0 0 1-3.429-8.28 4.969 4.969 0 0 1 6.861 0 4.849 4.849 0 0 1-3.431 8.28zm0-6.7a1.853 1.853 0 1 0 1.307.545 1.843 1.843 0 0 0-1.307-.546z" transform="translate(-45.248 -34.501)"/>
        </g>
        <g id="Group_13273" transform="translate(50.625 33.501)">
            <path id="Path_28590" d="M59.363 48.341a1.5 1.5 0 0 1-1.5-1.5v-14.07a7.712 7.712 0 0 0-7.7-7.7H36.1a1.5 1.5 0 0 1 0-3h14.059a10.716 10.716 0 0 1 10.7 10.7v14.07a1.5 1.5 0 0 1-1.496 1.5z" transform="translate(-34.6 -22.067)"/>
        </g>
    </g>
    <path id="Rectangle_13732" fill="none" d="M0 0H120V120H0z"/>
</svg>
